<?xml version="1.0" encoding="UTF-8" standalone="no"?>
<!-- This is a Stata 15.1 generated SVG file (http://www.stata.com) -->

<svg version="1.1" width="12.00in" height="6.00in" viewBox="0 0 8640 4320" xmlns="http://www.w3.org/2000/svg" xmlns:xlink="http://www.w3.org/1999/xlink">
	<desc>Stata Graph - Graph</desc>
	<rect x="0" y="0" width="8640" height="4320" style="fill:#EAF2F3;stroke:none"/>
	<rect x="0.00" y="0.00" width="8640.00" height="4320.00" style="fill:#EAF2F3"/>
	<rect x="4.32" y="4.32" width="8631.36" height="4311.36" style="fill:none;stroke:#EAF2F3;stroke-width:8.64"/>
	<rect x="95.04" y="95.04" width="4224.96" height="4129.92" style="fill:#EAF2F3"/>
	<rect x="98.28" y="98.28" width="4218.48" height="4123.44" style="fill:none;stroke:#EAF2F3;stroke-width:6.48"/>
	<rect x="534.60" y="208.44" width="3672.00" height="3576.96" style="fill:#FFFFFF"/>
	<rect x="537.84" y="211.68" width="3665.52" height="3570.48" style="fill:none;stroke:#FFFFFF;stroke-width:6.48"/>
	<line x1="534.60" y1="3714.12" x2="4206.60" y2="3714.12" style="stroke:#EAF2F3;stroke-width:9.72"/>
	<line x1="534.60" y1="2606.31" x2="4206.60" y2="2606.31" style="stroke:#EAF2F3;stroke-width:9.72"/>
	<line x1="534.60" y1="1498.23" x2="4206.60" y2="1498.23" style="stroke:#EAF2F3;stroke-width:9.72"/>
	<line x1="534.60" y1="390.42" x2="4206.60" y2="390.42" style="stroke:#EAF2F3;stroke-width:9.72"/>
	<line x1="2370.60" y1="3785.40" x2="2370.60" y2="208.44" style="stroke:#C10534;stroke-width:9.72"/>
	<circle cx="649.89" cy="2805.84" r="29.70" style="fill:#1A476F"/>
	<circle cx="649.89" cy="2805.84" r="24.84" style="fill:none;stroke:#1A476F;stroke-width:9.72"/>
	<circle cx="694.17" cy="2717.01" r="29.70" style="fill:#1A476F"/>
	<circle cx="694.17" cy="2717.01" r="24.84" style="fill:none;stroke:#1A476F;stroke-width:9.72"/>
	<circle cx="738.18" cy="1476.36" r="29.70" style="fill:#1A476F"/>
	<circle cx="738.18" cy="1476.36" r="24.84" style="fill:none;stroke:#1A476F;stroke-width:9.72"/>
	<circle cx="782.19" cy="922.32" r="29.70" style="fill:#1A476F"/>
	<circle cx="782.19" cy="922.32" r="24.84" style="fill:none;stroke:#1A476F;stroke-width:9.72"/>
	<circle cx="826.47" cy="2717.01" r="29.70" style="fill:#1A476F"/>
	<circle cx="826.47" cy="2717.01" r="24.84" style="fill:none;stroke:#1A476F;stroke-width:9.72"/>
	<circle cx="870.48" cy="2783.70" r="29.70" style="fill:#1A476F"/>
	<circle cx="870.48" cy="2783.70" r="24.84" style="fill:none;stroke:#1A476F;stroke-width:9.72"/>
	<circle cx="914.76" cy="2628.45" r="29.70" style="fill:#1A476F"/>
	<circle cx="914.76" cy="2628.45" r="24.84" style="fill:none;stroke:#1A476F;stroke-width:9.72"/>
	<circle cx="958.77" cy="2827.98" r="29.70" style="fill:#1A476F"/>
	<circle cx="958.77" cy="2827.98" r="24.84" style="fill:none;stroke:#1A476F;stroke-width:9.72"/>
	<circle cx="1002.78" cy="3027.24" r="29.70" style="fill:#1A476F"/>
	<circle cx="1002.78" cy="3027.24" r="24.84" style="fill:none;stroke:#1A476F;stroke-width:9.72"/>
	<circle cx="1047.06" cy="944.46" r="29.70" style="fill:#1A476F"/>
	<circle cx="1047.06" cy="944.46" r="24.84" style="fill:none;stroke:#1A476F;stroke-width:9.72"/>
	<circle cx="1091.07" cy="1409.94" r="29.70" style="fill:#1A476F"/>
	<circle cx="1091.07" cy="1409.94" r="24.84" style="fill:none;stroke:#1A476F;stroke-width:9.72"/>
	<circle cx="1135.35" cy="2761.56" r="29.70" style="fill:#1A476F"/>
	<circle cx="1135.35" cy="2761.56" r="24.84" style="fill:none;stroke:#1A476F;stroke-width:9.72"/>
	<circle cx="1179.36" cy="2827.98" r="29.70" style="fill:#1A476F"/>
	<circle cx="1179.36" cy="2827.98" r="24.84" style="fill:none;stroke:#1A476F;stroke-width:9.72"/>
	<circle cx="1223.37" cy="2717.01" r="29.70" style="fill:#1A476F"/>
	<circle cx="1223.37" cy="2717.01" r="24.84" style="fill:none;stroke:#1A476F;stroke-width:9.72"/>
	<circle cx="1267.65" cy="2694.87" r="29.70" style="fill:#1A476F"/>
	<circle cx="1267.65" cy="2694.87" r="24.84" style="fill:none;stroke:#1A476F;stroke-width:9.72"/>
	<circle cx="1311.66" cy="2694.87" r="29.70" style="fill:#1A476F"/>
	<circle cx="1311.66" cy="2694.87" r="24.84" style="fill:none;stroke:#1A476F;stroke-width:9.72"/>
	<circle cx="1355.94" cy="1188.27" r="29.70" style="fill:#1A476F"/>
	<circle cx="1355.94" cy="1188.27" r="24.84" style="fill:none;stroke:#1A476F;stroke-width:9.72"/>
	<circle cx="1399.95" cy="989.01" r="29.70" style="fill:#1A476F"/>
	<circle cx="1399.95" cy="989.01" r="24.84" style="fill:none;stroke:#1A476F;stroke-width:9.72"/>
	<circle cx="1443.96" cy="2451.33" r="29.70" style="fill:#1A476F"/>
	<circle cx="1443.96" cy="2451.33" r="24.84" style="fill:none;stroke:#1A476F;stroke-width:9.72"/>
	<circle cx="1488.24" cy="2916.54" r="29.70" style="fill:#1A476F"/>
	<circle cx="1488.24" cy="2916.54" r="24.84" style="fill:none;stroke:#1A476F;stroke-width:9.72"/>
	<circle cx="1532.25" cy="2783.70" r="29.70" style="fill:#1A476F"/>
	<circle cx="1532.25" cy="2783.70" r="24.84" style="fill:none;stroke:#1A476F;stroke-width:9.72"/>
	<circle cx="1576.53" cy="2850.12" r="29.70" style="fill:#1A476F"/>
	<circle cx="1576.53" cy="2850.12" r="24.84" style="fill:none;stroke:#1A476F;stroke-width:9.72"/>
	<circle cx="1620.54" cy="2805.84" r="29.70" style="fill:#1A476F"/>
	<circle cx="1620.54" cy="2805.84" r="24.84" style="fill:none;stroke:#1A476F;stroke-width:9.72"/>
	<circle cx="1708.83" cy="833.76" r="29.70" style="fill:#1A476F"/>
	<circle cx="1708.83" cy="833.76" r="24.84" style="fill:none;stroke:#1A476F;stroke-width:9.72"/>
	<circle cx="1752.84" cy="2539.89" r="29.70" style="fill:#1A476F"/>
	<circle cx="1752.84" cy="2539.89" r="24.84" style="fill:none;stroke:#1A476F;stroke-width:9.72"/>
	<circle cx="1797.12" cy="2739.15" r="29.70" style="fill:#1A476F"/>
	<circle cx="1797.12" cy="2739.15" r="24.84" style="fill:none;stroke:#1A476F;stroke-width:9.72"/>
	<circle cx="1841.13" cy="2562.03" r="29.70" style="fill:#1A476F"/>
	<circle cx="1841.13" cy="2562.03" r="24.84" style="fill:none;stroke:#1A476F;stroke-width:9.72"/>
	<circle cx="1885.14" cy="2872.26" r="29.70" style="fill:#1A476F"/>
	<circle cx="1885.14" cy="2872.26" r="24.84" style="fill:none;stroke:#1A476F;stroke-width:9.72"/>
	<circle cx="1929.42" cy="2717.01" r="29.70" style="fill:#1A476F"/>
	<circle cx="1929.42" cy="2717.01" r="24.84" style="fill:none;stroke:#1A476F;stroke-width:9.72"/>
	<circle cx="1973.43" cy="1564.92" r="29.70" style="fill:#1A476F"/>
	<circle cx="1973.43" cy="1564.92" r="24.84" style="fill:none;stroke:#1A476F;stroke-width:9.72"/>
	<circle cx="2017.44" cy="989.01" r="29.70" style="fill:#1A476F"/>
	<circle cx="2017.44" cy="989.01" r="24.84" style="fill:none;stroke:#1A476F;stroke-width:9.72"/>
	<circle cx="2061.72" cy="2584.17" r="29.70" style="fill:#1A476F"/>
	<circle cx="2061.72" cy="2584.17" r="24.84" style="fill:none;stroke:#1A476F;stroke-width:9.72"/>
	<circle cx="2105.73" cy="2783.70" r="29.70" style="fill:#1A476F"/>
	<circle cx="2105.73" cy="2783.70" r="24.84" style="fill:none;stroke:#1A476F;stroke-width:9.72"/>
	<circle cx="2150.01" cy="2650.59" r="29.70" style="fill:#1A476F"/>
	<circle cx="2150.01" cy="2650.59" r="24.84" style="fill:none;stroke:#1A476F;stroke-width:9.72"/>
	<circle cx="2194.02" cy="2606.31" r="29.70" style="fill:#1A476F"/>
	<circle cx="2194.02" cy="2606.31" r="24.84" style="fill:none;stroke:#1A476F;stroke-width:9.72"/>
	<circle cx="2238.03" cy="2517.75" r="29.70" style="fill:#1A476F"/>
	<circle cx="2238.03" cy="2517.75" r="24.84" style="fill:none;stroke:#1A476F;stroke-width:9.72"/>
	<circle cx="2282.31" cy="545.67" r="29.70" style="fill:#1A476F"/>
	<circle cx="2282.31" cy="545.67" r="24.84" style="fill:none;stroke:#1A476F;stroke-width:9.72"/>
	<circle cx="2326.32" cy="700.92" r="29.70" style="fill:#1A476F"/>
	<circle cx="2326.32" cy="700.92" r="24.84" style="fill:none;stroke:#1A476F;stroke-width:9.72"/>
	<circle cx="2370.60" cy="2495.61" r="29.70" style="fill:#1A476F"/>
	<circle cx="2370.60" cy="2495.61" r="24.84" style="fill:none;stroke:#1A476F;stroke-width:9.72"/>
	<circle cx="2414.61" cy="2628.45" r="29.70" style="fill:#1A476F"/>
	<circle cx="2414.61" cy="2628.45" r="24.84" style="fill:none;stroke:#1A476F;stroke-width:9.72"/>
	<circle cx="2458.62" cy="2628.45" r="29.70" style="fill:#1A476F"/>
	<circle cx="2458.62" cy="2628.45" r="24.84" style="fill:none;stroke:#1A476F;stroke-width:9.72"/>
	<circle cx="2502.90" cy="2539.89" r="29.70" style="fill:#1A476F"/>
	<circle cx="2502.90" cy="2539.89" r="24.84" style="fill:none;stroke:#1A476F;stroke-width:9.72"/>
	<circle cx="2546.91" cy="3093.66" r="29.70" style="fill:#1A476F"/>
	<circle cx="2546.91" cy="3093.66" r="24.84" style="fill:none;stroke:#1A476F;stroke-width:9.72"/>
	<circle cx="2591.19" cy="279.72" r="29.70" style="fill:#1A476F"/>
	<circle cx="2591.19" cy="279.72" r="24.84" style="fill:none;stroke:#1A476F;stroke-width:9.72"/>
	<circle cx="2635.20" cy="700.92" r="29.70" style="fill:#1A476F"/>
	<circle cx="2635.20" cy="700.92" r="24.84" style="fill:none;stroke:#1A476F;stroke-width:9.72"/>
	<circle cx="2679.21" cy="2628.45" r="29.70" style="fill:#1A476F"/>
	<circle cx="2679.21" cy="2628.45" r="24.84" style="fill:none;stroke:#1A476F;stroke-width:9.72"/>
	<circle cx="2723.49" cy="2517.75" r="29.70" style="fill:#1A476F"/>
	<circle cx="2723.49" cy="2517.75" r="24.84" style="fill:none;stroke:#1A476F;stroke-width:9.72"/>
	<circle cx="2767.50" cy="2517.75" r="29.70" style="fill:#1A476F"/>
	<circle cx="2767.50" cy="2517.75" r="24.84" style="fill:none;stroke:#1A476F;stroke-width:9.72"/>
	<circle cx="2811.78" cy="2872.26" r="29.70" style="fill:#1A476F"/>
	<circle cx="2811.78" cy="2872.26" r="24.84" style="fill:none;stroke:#1A476F;stroke-width:9.72"/>
	<circle cx="2855.79" cy="3027.24" r="29.70" style="fill:#1A476F"/>
	<circle cx="2855.79" cy="3027.24" r="24.84" style="fill:none;stroke:#1A476F;stroke-width:9.72"/>
	<circle cx="2899.80" cy="1210.41" r="29.70" style="fill:#1A476F"/>
	<circle cx="2899.80" cy="1210.41" r="24.84" style="fill:none;stroke:#1A476F;stroke-width:9.72"/>
	<circle cx="2944.08" cy="922.32" r="29.70" style="fill:#1A476F"/>
	<circle cx="2944.08" cy="922.32" r="24.84" style="fill:none;stroke:#1A476F;stroke-width:9.72"/>
	<circle cx="2988.09" cy="2960.82" r="29.70" style="fill:#1A476F"/>
	<circle cx="2988.09" cy="2960.82" r="24.84" style="fill:none;stroke:#1A476F;stroke-width:9.72"/>
	<circle cx="3032.37" cy="2827.98" r="29.70" style="fill:#1A476F"/>
	<circle cx="3032.37" cy="2827.98" r="24.84" style="fill:none;stroke:#1A476F;stroke-width:9.72"/>
	<circle cx="3076.38" cy="2628.45" r="29.70" style="fill:#1A476F"/>
	<circle cx="3076.38" cy="2628.45" r="24.84" style="fill:none;stroke:#1A476F;stroke-width:9.72"/>
	<circle cx="3120.39" cy="2606.31" r="29.70" style="fill:#1A476F"/>
	<circle cx="3120.39" cy="2606.31" r="24.84" style="fill:none;stroke:#1A476F;stroke-width:9.72"/>
	<circle cx="3164.67" cy="1853.01" r="29.70" style="fill:#1A476F"/>
	<circle cx="3164.67" cy="1853.01" r="24.84" style="fill:none;stroke:#1A476F;stroke-width:9.72"/>
	<circle cx="3208.68" cy="1298.97" r="29.70" style="fill:#1A476F"/>
	<circle cx="3208.68" cy="1298.97" r="24.84" style="fill:none;stroke:#1A476F;stroke-width:9.72"/>
	<circle cx="3252.96" cy="2052.54" r="29.70" style="fill:#1A476F"/>
	<circle cx="3252.96" cy="2052.54" r="24.84" style="fill:none;stroke:#1A476F;stroke-width:9.72"/>
	<circle cx="3296.97" cy="2628.45" r="29.70" style="fill:#1A476F"/>
	<circle cx="3296.97" cy="2628.45" r="24.84" style="fill:none;stroke:#1A476F;stroke-width:9.72"/>
	<circle cx="3340.98" cy="2606.31" r="29.70" style="fill:#1A476F"/>
	<circle cx="3340.98" cy="2606.31" r="24.84" style="fill:none;stroke:#1A476F;stroke-width:9.72"/>
	<circle cx="3385.26" cy="2717.01" r="29.70" style="fill:#1A476F"/>
	<circle cx="3385.26" cy="2717.01" r="24.84" style="fill:none;stroke:#1A476F;stroke-width:9.72"/>
	<circle cx="3429.27" cy="2717.01" r="29.70" style="fill:#1A476F"/>
	<circle cx="3429.27" cy="2717.01" r="24.84" style="fill:none;stroke:#1A476F;stroke-width:9.72"/>
	<circle cx="3473.55" cy="2850.12" r="29.70" style="fill:#1A476F"/>
	<circle cx="3473.55" cy="2850.12" r="24.84" style="fill:none;stroke:#1A476F;stroke-width:9.72"/>
	<circle cx="3517.56" cy="1720.17" r="29.70" style="fill:#1A476F"/>
	<circle cx="3517.56" cy="1720.17" r="24.84" style="fill:none;stroke:#1A476F;stroke-width:9.72"/>
	<circle cx="3561.57" cy="634.50" r="29.70" style="fill:#1A476F"/>
	<circle cx="3561.57" cy="634.50" r="24.84" style="fill:none;stroke:#1A476F;stroke-width:9.72"/>
	<circle cx="3605.85" cy="2827.98" r="29.70" style="fill:#1A476F"/>
	<circle cx="3605.85" cy="2827.98" r="24.84" style="fill:none;stroke:#1A476F;stroke-width:9.72"/>
	<circle cx="3649.86" cy="2894.40" r="29.70" style="fill:#1A476F"/>
	<circle cx="3649.86" cy="2894.40" r="24.84" style="fill:none;stroke:#1A476F;stroke-width:9.72"/>
	<circle cx="3694.14" cy="2805.84" r="29.70" style="fill:#1A476F"/>
	<circle cx="3694.14" cy="2805.84" r="24.84" style="fill:none;stroke:#1A476F;stroke-width:9.72"/>
	<circle cx="3738.15" cy="2894.40" r="29.70" style="fill:#1A476F"/>
	<circle cx="3738.15" cy="2894.40" r="24.84" style="fill:none;stroke:#1A476F;stroke-width:9.72"/>
	<circle cx="3782.16" cy="2429.19" r="29.70" style="fill:#1A476F"/>
	<circle cx="3782.16" cy="2429.19" r="24.84" style="fill:none;stroke:#1A476F;stroke-width:9.72"/>
	<circle cx="3826.44" cy="789.48" r="29.70" style="fill:#1A476F"/>
	<circle cx="3826.44" cy="789.48" r="24.84" style="fill:none;stroke:#1A476F;stroke-width:9.72"/>
	<circle cx="3870.45" cy="2584.17" r="29.70" style="fill:#1A476F"/>
	<circle cx="3870.45" cy="2584.17" r="24.84" style="fill:none;stroke:#1A476F;stroke-width:9.72"/>
	<circle cx="3914.73" cy="3359.61" r="29.70" style="fill:#1A476F"/>
	<circle cx="3914.73" cy="3359.61" r="24.84" style="fill:none;stroke:#1A476F;stroke-width:9.72"/>
	<circle cx="3958.74" cy="3248.91" r="29.70" style="fill:#1A476F"/>
	<circle cx="3958.74" cy="3248.91" r="24.84" style="fill:none;stroke:#1A476F;stroke-width:9.72"/>
	<circle cx="4002.75" cy="3293.19" r="29.70" style="fill:#1A476F"/>
	<circle cx="4002.75" cy="3293.19" r="24.84" style="fill:none;stroke:#1A476F;stroke-width:9.72"/>
	<circle cx="4047.03" cy="3182.49" r="29.70" style="fill:#1A476F"/>
	<circle cx="4047.03" cy="3182.49" r="24.84" style="fill:none;stroke:#1A476F;stroke-width:9.72"/>
	<circle cx="4091.04" cy="3204.63" r="29.70" style="fill:#1A476F"/>
	<circle cx="4091.04" cy="3204.63" r="24.84" style="fill:none;stroke:#1A476F;stroke-width:9.72"/>
	<path d=" M2414.61 1823.31 L3252.96 2222.64 L4091.04 2621.70" stroke-linecap="round" stroke-linejoin="round" style="fill:none;stroke:#90353B;stroke-width:9.72"/>
	<path d=" M649.89 2161.08 L1488.24 2002.05 L2326.32 1843.29" stroke-linecap="round" stroke-linejoin="round" style="fill:none;stroke:#55752F;stroke-width:9.72"/>
	<path d=" M2414.61 1748.79 L3252.96 2156.22 L4091.04 2563.65" stroke-linecap="round" stroke-linejoin="round" style="fill:none;stroke:#E37E00;stroke-width:9.72"/>
	<path d=" M649.89 2248.29 L1488.24 2080.89 L2326.32 1913.49" stroke-linecap="round" stroke-linejoin="round" style="fill:none;stroke:#6E8E84;stroke-width:9.72"/>
	<path d=" M2414.61 1897.83 L3252.96 2288.79 L4091.04 2679.75" stroke-linecap="round" stroke-linejoin="round" style="fill:none;stroke:#C10534;stroke-width:9.72"/>
	<path d=" M649.89 2073.60 L1488.24 1923.48 L2326.32 1773.09" stroke-linecap="round" stroke-linejoin="round" style="fill:none;stroke:#938DD2;stroke-width:9.72"/>
	<line x1="534.60" y1="3785.40" x2="534.60" y2="208.44" style="stroke:#000000;stroke-width:6.48"/>
	<line x1="534.60" y1="3714.12" x2="489.78" y2="3714.12" style="stroke:#000000;stroke-width:6.48"/>
	<text x="433.19" y="3714.12" style="font-family:'Helvetica';font-size:112.59px;fill:#000000" transform="rotate(-90 433.19,3714.12)" text-anchor="middle">0</text>
	<line x1="534.60" y1="2606.31" x2="489.78" y2="2606.31" style="stroke:#000000;stroke-width:6.48"/>
	<text x="433.19" y="2606.31" style="font-family:'Helvetica';font-size:112.59px;fill:#000000" transform="rotate(-90 433.19,2606.31)" text-anchor="middle">50</text>
	<line x1="534.60" y1="1498.23" x2="489.78" y2="1498.23" style="stroke:#000000;stroke-width:6.48"/>
	<text x="433.19" y="1498.23" style="font-family:'Helvetica';font-size:112.59px;fill:#000000" transform="rotate(-90 433.19,1498.23)" text-anchor="middle">100</text>
	<line x1="534.60" y1="390.42" x2="489.78" y2="390.42" style="stroke:#000000;stroke-width:6.48"/>
	<text x="433.19" y="390.42" style="font-family:'Helvetica';font-size:112.59px;fill:#000000" transform="rotate(-90 433.19,390.42)" text-anchor="middle">150</text>
	<text x="309.53" y="1996.92" style="font-family:'Helvetica';font-size:112.59px;fill:#000000" transform="rotate(-90 309.53,1996.92)" text-anchor="middle">Survey Obs. Freqencies</text>
	<line x1="534.60" y1="3785.40" x2="4206.60" y2="3785.40" style="stroke:#000000;stroke-width:6.48"/>
	<line x1="605.88" y1="3785.40" x2="605.88" y2="3830.22" style="stroke:#000000;stroke-width:6.48"/>
	<text x="605.88" y="3931.58" style="font-family:'Helvetica';font-size:112.59px;fill:#000000" text-anchor="middle">-40</text>
	<line x1="1488.24" y1="3785.40" x2="1488.24" y2="3830.22" style="stroke:#000000;stroke-width:6.48"/>
	<text x="1488.24" y="3931.58" style="font-family:'Helvetica';font-size:112.59px;fill:#000000" text-anchor="middle">-20</text>
	<line x1="2370.60" y1="3785.40" x2="2370.60" y2="3830.22" style="stroke:#000000;stroke-width:6.48"/>
	<text x="2370.60" y="3931.58" style="font-family:'Helvetica';font-size:112.59px;fill:#000000" text-anchor="middle">0</text>
	<line x1="3252.96" y1="3785.40" x2="3252.96" y2="3830.22" style="stroke:#000000;stroke-width:6.48"/>
	<text x="3252.96" y="3931.58" style="font-family:'Helvetica';font-size:112.59px;fill:#000000" text-anchor="middle">20</text>
	<line x1="4135.32" y1="3785.40" x2="4135.32" y2="3830.22" style="stroke:#000000;stroke-width:6.48"/>
	<text x="4135.32" y="3931.58" style="font-family:'Helvetica';font-size:112.59px;fill:#000000" text-anchor="middle">40</text>
	<text x="2370.60" y="4055.24" style="font-family:'Helvetica';font-size:112.59px;fill:#000000" text-anchor="middle">Days elapsed since April 15 2013</text>
	<rect x="4320.00" y="95.04" width="4224.96" height="4129.92" style="fill:#EAF2F3"/>
	<rect x="4323.24" y="98.28" width="4218.48" height="4123.44" style="fill:none;stroke:#EAF2F3;stroke-width:6.48"/>
	<rect x="4759.56" y="208.44" width="3672.00" height="3576.96" style="fill:#FFFFFF"/>
	<rect x="4762.80" y="211.68" width="3665.52" height="3570.48" style="fill:none;stroke:#FFFFFF;stroke-width:6.48"/>
	<line x1="4759.56" y1="3714.12" x2="8431.56" y2="3714.12" style="stroke:#EAF2F3;stroke-width:9.72"/>
	<line x1="4759.56" y1="2606.31" x2="8431.56" y2="2606.31" style="stroke:#EAF2F3;stroke-width:9.72"/>
	<line x1="4759.56" y1="1498.23" x2="8431.56" y2="1498.23" style="stroke:#EAF2F3;stroke-width:9.72"/>
	<line x1="4759.56" y1="390.42" x2="8431.56" y2="390.42" style="stroke:#EAF2F3;stroke-width:9.72"/>
	<line x1="6595.56" y1="3785.40" x2="6595.56" y2="208.44" style="stroke:#C10534;stroke-width:9.72"/>
	<circle cx="5051.43" cy="2717.01" r="29.70" style="fill:#1A476F"/>
	<circle cx="5051.43" cy="2717.01" r="24.84" style="fill:none;stroke:#1A476F;stroke-width:9.72"/>
	<circle cx="5095.44" cy="2783.70" r="29.70" style="fill:#1A476F"/>
	<circle cx="5095.44" cy="2783.70" r="24.84" style="fill:none;stroke:#1A476F;stroke-width:9.72"/>
	<circle cx="5139.72" cy="2628.45" r="29.70" style="fill:#1A476F"/>
	<circle cx="5139.72" cy="2628.45" r="24.84" style="fill:none;stroke:#1A476F;stroke-width:9.72"/>
	<circle cx="5183.73" cy="2827.98" r="29.70" style="fill:#1A476F"/>
	<circle cx="5183.73" cy="2827.98" r="24.84" style="fill:none;stroke:#1A476F;stroke-width:9.72"/>
	<circle cx="5227.74" cy="3027.24" r="29.70" style="fill:#1A476F"/>
	<circle cx="5227.74" cy="3027.24" r="24.84" style="fill:none;stroke:#1A476F;stroke-width:9.72"/>
	<circle cx="5272.02" cy="944.46" r="29.70" style="fill:#1A476F"/>
	<circle cx="5272.02" cy="944.46" r="24.84" style="fill:none;stroke:#1A476F;stroke-width:9.72"/>
	<circle cx="5316.03" cy="1409.94" r="29.70" style="fill:#1A476F"/>
	<circle cx="5316.03" cy="1409.94" r="24.84" style="fill:none;stroke:#1A476F;stroke-width:9.72"/>
	<circle cx="5360.31" cy="2761.56" r="29.70" style="fill:#1A476F"/>
	<circle cx="5360.31" cy="2761.56" r="24.84" style="fill:none;stroke:#1A476F;stroke-width:9.72"/>
	<circle cx="5404.32" cy="2827.98" r="29.70" style="fill:#1A476F"/>
	<circle cx="5404.32" cy="2827.98" r="24.84" style="fill:none;stroke:#1A476F;stroke-width:9.72"/>
	<circle cx="5448.33" cy="2717.01" r="29.70" style="fill:#1A476F"/>
	<circle cx="5448.33" cy="2717.01" r="24.84" style="fill:none;stroke:#1A476F;stroke-width:9.72"/>
	<circle cx="5492.61" cy="2694.87" r="29.70" style="fill:#1A476F"/>
	<circle cx="5492.61" cy="2694.87" r="24.84" style="fill:none;stroke:#1A476F;stroke-width:9.72"/>
	<circle cx="5536.62" cy="2694.87" r="29.70" style="fill:#1A476F"/>
	<circle cx="5536.62" cy="2694.87" r="24.84" style="fill:none;stroke:#1A476F;stroke-width:9.72"/>
	<circle cx="5580.90" cy="1188.27" r="29.70" style="fill:#1A476F"/>
	<circle cx="5580.90" cy="1188.27" r="24.84" style="fill:none;stroke:#1A476F;stroke-width:9.72"/>
	<circle cx="5624.91" cy="989.01" r="29.70" style="fill:#1A476F"/>
	<circle cx="5624.91" cy="989.01" r="24.84" style="fill:none;stroke:#1A476F;stroke-width:9.72"/>
	<circle cx="5668.92" cy="2451.33" r="29.70" style="fill:#1A476F"/>
	<circle cx="5668.92" cy="2451.33" r="24.84" style="fill:none;stroke:#1A476F;stroke-width:9.72"/>
	<circle cx="5713.20" cy="2916.54" r="29.70" style="fill:#1A476F"/>
	<circle cx="5713.20" cy="2916.54" r="24.84" style="fill:none;stroke:#1A476F;stroke-width:9.72"/>
	<circle cx="5757.21" cy="2783.70" r="29.70" style="fill:#1A476F"/>
	<circle cx="5757.21" cy="2783.70" r="24.84" style="fill:none;stroke:#1A476F;stroke-width:9.72"/>
	<circle cx="5801.49" cy="2850.12" r="29.70" style="fill:#1A476F"/>
	<circle cx="5801.49" cy="2850.12" r="24.84" style="fill:none;stroke:#1A476F;stroke-width:9.72"/>
	<circle cx="5845.50" cy="2805.84" r="29.70" style="fill:#1A476F"/>
	<circle cx="5845.50" cy="2805.84" r="24.84" style="fill:none;stroke:#1A476F;stroke-width:9.72"/>
	<circle cx="5889.51" cy="2340.36" r="29.70" style="fill:#1A476F"/>
	<circle cx="5889.51" cy="2340.36" r="24.84" style="fill:none;stroke:#1A476F;stroke-width:9.72"/>
	<circle cx="5933.79" cy="833.76" r="29.70" style="fill:#1A476F"/>
	<circle cx="5933.79" cy="833.76" r="24.84" style="fill:none;stroke:#1A476F;stroke-width:9.72"/>
	<circle cx="5977.80" cy="2539.89" r="29.70" style="fill:#1A476F"/>
	<circle cx="5977.80" cy="2539.89" r="24.84" style="fill:none;stroke:#1A476F;stroke-width:9.72"/>
	<circle cx="6022.08" cy="2739.15" r="29.70" style="fill:#1A476F"/>
	<circle cx="6022.08" cy="2739.15" r="24.84" style="fill:none;stroke:#1A476F;stroke-width:9.72"/>
	<circle cx="6066.09" cy="2562.03" r="29.70" style="fill:#1A476F"/>
	<circle cx="6066.09" cy="2562.03" r="24.84" style="fill:none;stroke:#1A476F;stroke-width:9.72"/>
	<circle cx="6110.10" cy="2872.26" r="29.70" style="fill:#1A476F"/>
	<circle cx="6110.10" cy="2872.26" r="24.84" style="fill:none;stroke:#1A476F;stroke-width:9.72"/>
	<circle cx="6154.38" cy="2717.01" r="29.70" style="fill:#1A476F"/>
	<circle cx="6154.38" cy="2717.01" r="24.84" style="fill:none;stroke:#1A476F;stroke-width:9.72"/>
	<circle cx="6242.40" cy="989.01" r="29.70" style="fill:#1A476F"/>
	<circle cx="6242.40" cy="989.01" r="24.84" style="fill:none;stroke:#1A476F;stroke-width:9.72"/>
	<circle cx="6286.68" cy="2584.17" r="29.70" style="fill:#1A476F"/>
	<circle cx="6286.68" cy="2584.17" r="24.84" style="fill:none;stroke:#1A476F;stroke-width:9.72"/>
	<circle cx="6330.69" cy="2783.70" r="29.70" style="fill:#1A476F"/>
	<circle cx="6330.69" cy="2783.70" r="24.84" style="fill:none;stroke:#1A476F;stroke-width:9.72"/>
	<circle cx="6374.97" cy="2650.59" r="29.70" style="fill:#1A476F"/>
	<circle cx="6374.97" cy="2650.59" r="24.84" style="fill:none;stroke:#1A476F;stroke-width:9.72"/>
	<circle cx="6418.98" cy="2606.31" r="29.70" style="fill:#1A476F"/>
	<circle cx="6418.98" cy="2606.31" r="24.84" style="fill:none;stroke:#1A476F;stroke-width:9.72"/>
	<circle cx="6462.99" cy="2517.75" r="29.70" style="fill:#1A476F"/>
	<circle cx="6462.99" cy="2517.75" r="24.84" style="fill:none;stroke:#1A476F;stroke-width:9.72"/>
	<circle cx="6507.27" cy="545.67" r="29.70" style="fill:#1A476F"/>
	<circle cx="6507.27" cy="545.67" r="24.84" style="fill:none;stroke:#1A476F;stroke-width:9.72"/>
	<circle cx="6551.28" cy="700.92" r="29.70" style="fill:#1A476F"/>
	<circle cx="6551.28" cy="700.92" r="24.84" style="fill:none;stroke:#1A476F;stroke-width:9.72"/>
	<circle cx="6595.56" cy="2495.61" r="29.70" style="fill:#1A476F"/>
	<circle cx="6595.56" cy="2495.61" r="24.84" style="fill:none;stroke:#1A476F;stroke-width:9.72"/>
	<circle cx="6639.57" cy="2628.45" r="29.70" style="fill:#1A476F"/>
	<circle cx="6639.57" cy="2628.45" r="24.84" style="fill:none;stroke:#1A476F;stroke-width:9.72"/>
	<circle cx="6683.58" cy="2628.45" r="29.70" style="fill:#1A476F"/>
	<circle cx="6683.58" cy="2628.45" r="24.84" style="fill:none;stroke:#1A476F;stroke-width:9.72"/>
	<circle cx="6727.86" cy="2539.89" r="29.70" style="fill:#1A476F"/>
	<circle cx="6727.86" cy="2539.89" r="24.84" style="fill:none;stroke:#1A476F;stroke-width:9.72"/>
	<circle cx="6771.87" cy="3093.66" r="29.70" style="fill:#1A476F"/>
	<circle cx="6771.87" cy="3093.66" r="24.84" style="fill:none;stroke:#1A476F;stroke-width:9.72"/>
	<circle cx="6816.15" cy="279.72" r="29.70" style="fill:#1A476F"/>
	<circle cx="6816.15" cy="279.72" r="24.84" style="fill:none;stroke:#1A476F;stroke-width:9.72"/>
	<circle cx="6860.16" cy="700.92" r="29.70" style="fill:#1A476F"/>
	<circle cx="6860.16" cy="700.92" r="24.84" style="fill:none;stroke:#1A476F;stroke-width:9.72"/>
	<circle cx="6904.17" cy="2628.45" r="29.70" style="fill:#1A476F"/>
	<circle cx="6904.17" cy="2628.45" r="24.84" style="fill:none;stroke:#1A476F;stroke-width:9.72"/>
	<circle cx="6948.45" cy="2517.75" r="29.70" style="fill:#1A476F"/>
	<circle cx="6948.45" cy="2517.75" r="24.84" style="fill:none;stroke:#1A476F;stroke-width:9.72"/>
	<circle cx="6992.46" cy="2517.75" r="29.70" style="fill:#1A476F"/>
	<circle cx="6992.46" cy="2517.75" r="24.84" style="fill:none;stroke:#1A476F;stroke-width:9.72"/>
	<circle cx="7036.74" cy="2872.26" r="29.70" style="fill:#1A476F"/>
	<circle cx="7036.74" cy="2872.26" r="24.84" style="fill:none;stroke:#1A476F;stroke-width:9.72"/>
	<circle cx="7124.76" cy="1210.41" r="29.70" style="fill:#1A476F"/>
	<circle cx="7124.76" cy="1210.41" r="24.84" style="fill:none;stroke:#1A476F;stroke-width:9.72"/>
	<circle cx="7169.04" cy="922.32" r="29.70" style="fill:#1A476F"/>
	<circle cx="7169.04" cy="922.32" r="24.84" style="fill:none;stroke:#1A476F;stroke-width:9.72"/>
	<circle cx="7213.05" cy="2960.82" r="29.70" style="fill:#1A476F"/>
	<circle cx="7213.05" cy="2960.82" r="24.84" style="fill:none;stroke:#1A476F;stroke-width:9.72"/>
	<circle cx="7257.33" cy="2827.98" r="29.70" style="fill:#1A476F"/>
	<circle cx="7257.33" cy="2827.98" r="24.84" style="fill:none;stroke:#1A476F;stroke-width:9.72"/>
	<circle cx="7301.34" cy="2628.45" r="29.70" style="fill:#1A476F"/>
	<circle cx="7301.34" cy="2628.45" r="24.84" style="fill:none;stroke:#1A476F;stroke-width:9.72"/>
	<circle cx="7345.35" cy="2606.31" r="29.70" style="fill:#1A476F"/>
	<circle cx="7345.35" cy="2606.31" r="24.84" style="fill:none;stroke:#1A476F;stroke-width:9.72"/>
	<circle cx="7389.63" cy="1853.01" r="29.70" style="fill:#1A476F"/>
	<circle cx="7389.63" cy="1853.01" r="24.84" style="fill:none;stroke:#1A476F;stroke-width:9.72"/>
	<circle cx="7433.64" cy="1298.97" r="29.70" style="fill:#1A476F"/>
	<circle cx="7433.64" cy="1298.97" r="24.84" style="fill:none;stroke:#1A476F;stroke-width:9.72"/>
	<circle cx="7477.92" cy="2052.54" r="29.70" style="fill:#1A476F"/>
	<circle cx="7477.92" cy="2052.54" r="24.84" style="fill:none;stroke:#1A476F;stroke-width:9.72"/>
	<circle cx="7521.93" cy="2628.45" r="29.70" style="fill:#1A476F"/>
	<circle cx="7521.93" cy="2628.45" r="24.84" style="fill:none;stroke:#1A476F;stroke-width:9.72"/>
	<circle cx="7565.94" cy="2606.31" r="29.70" style="fill:#1A476F"/>
	<circle cx="7565.94" cy="2606.31" r="24.84" style="fill:none;stroke:#1A476F;stroke-width:9.72"/>
	<circle cx="7610.22" cy="2717.01" r="29.70" style="fill:#1A476F"/>
	<circle cx="7610.22" cy="2717.01" r="24.84" style="fill:none;stroke:#1A476F;stroke-width:9.72"/>
	<circle cx="7654.23" cy="2717.01" r="29.70" style="fill:#1A476F"/>
	<circle cx="7654.23" cy="2717.01" r="24.84" style="fill:none;stroke:#1A476F;stroke-width:9.72"/>
	<circle cx="7698.51" cy="2850.12" r="29.70" style="fill:#1A476F"/>
	<circle cx="7698.51" cy="2850.12" r="24.84" style="fill:none;stroke:#1A476F;stroke-width:9.72"/>
	<circle cx="7742.52" cy="1720.17" r="29.70" style="fill:#1A476F"/>
	<circle cx="7742.52" cy="1720.17" r="24.84" style="fill:none;stroke:#1A476F;stroke-width:9.72"/>
	<circle cx="7786.53" cy="634.50" r="29.70" style="fill:#1A476F"/>
	<circle cx="7786.53" cy="634.50" r="24.84" style="fill:none;stroke:#1A476F;stroke-width:9.72"/>
	<circle cx="7830.81" cy="2827.98" r="29.70" style="fill:#1A476F"/>
	<circle cx="7830.81" cy="2827.98" r="24.84" style="fill:none;stroke:#1A476F;stroke-width:9.72"/>
	<circle cx="7874.82" cy="2894.40" r="29.70" style="fill:#1A476F"/>
	<circle cx="7874.82" cy="2894.40" r="24.84" style="fill:none;stroke:#1A476F;stroke-width:9.72"/>
	<circle cx="7919.10" cy="2805.84" r="29.70" style="fill:#1A476F"/>
	<circle cx="7919.10" cy="2805.84" r="24.84" style="fill:none;stroke:#1A476F;stroke-width:9.72"/>
	<circle cx="7963.11" cy="2894.40" r="29.70" style="fill:#1A476F"/>
	<circle cx="7963.11" cy="2894.40" r="24.84" style="fill:none;stroke:#1A476F;stroke-width:9.72"/>
	<circle cx="8007.12" cy="2429.19" r="29.70" style="fill:#1A476F"/>
	<circle cx="8007.12" cy="2429.19" r="24.84" style="fill:none;stroke:#1A476F;stroke-width:9.72"/>
	<circle cx="8051.40" cy="789.48" r="29.70" style="fill:#1A476F"/>
	<circle cx="8051.40" cy="789.48" r="24.84" style="fill:none;stroke:#1A476F;stroke-width:9.72"/>
	<circle cx="8095.41" cy="2584.17" r="29.70" style="fill:#1A476F"/>
	<circle cx="8095.41" cy="2584.17" r="24.84" style="fill:none;stroke:#1A476F;stroke-width:9.72"/>
	<circle cx="8139.69" cy="3359.61" r="29.70" style="fill:#1A476F"/>
	<circle cx="8139.69" cy="3359.61" r="24.84" style="fill:none;stroke:#1A476F;stroke-width:9.72"/>
	<path d=" M6639.57 1936.17 L7389.63 2074.68 L8139.69 2213.46" stroke-linecap="round" stroke-linejoin="round" style="fill:none;stroke:#90353B;stroke-width:9.72"/>
	<path d=" M5051.43 2442.15 L5801.49 2161.89 L6551.28 1881.63" stroke-linecap="round" stroke-linejoin="round" style="fill:none;stroke:#55752F;stroke-width:9.72"/>
	<path d=" M6639.57 1875.42 L7389.63 2013.39 L8139.69 2151.63" stroke-linecap="round" stroke-linejoin="round" style="fill:none;stroke:#E37E00;stroke-width:9.72"/>
	<path d=" M5051.43 2499.12 L5801.49 2215.62 L6551.28 1932.12" stroke-linecap="round" stroke-linejoin="round" style="fill:none;stroke:#6E8E84;stroke-width:9.72"/>
	<path d=" M6639.57 1996.92 L7389.63 2136.24 L8139.69 2275.29" stroke-linecap="round" stroke-linejoin="round" style="fill:none;stroke:#C10534;stroke-width:9.72"/>
	<path d=" M5051.43 2384.91 L5801.49 2108.16 L6551.28 1831.14" stroke-linecap="round" stroke-linejoin="round" style="fill:none;stroke:#938DD2;stroke-width:9.72"/>
	<line x1="4759.56" y1="3785.40" x2="4759.56" y2="208.44" style="stroke:#000000;stroke-width:6.48"/>
	<line x1="4759.56" y1="3714.12" x2="4714.74" y2="3714.12" style="stroke:#000000;stroke-width:6.48"/>
	<text x="4658.15" y="3714.12" style="font-family:'Helvetica';font-size:112.59px;fill:#000000" transform="rotate(-90 4658.15,3714.12)" text-anchor="middle">0</text>
	<line x1="4759.56" y1="2606.31" x2="4714.74" y2="2606.31" style="stroke:#000000;stroke-width:6.48"/>
	<text x="4658.15" y="2606.31" style="font-family:'Helvetica';font-size:112.59px;fill:#000000" transform="rotate(-90 4658.15,2606.31)" text-anchor="middle">50</text>
	<line x1="4759.56" y1="1498.23" x2="4714.74" y2="1498.23" style="stroke:#000000;stroke-width:6.48"/>
	<text x="4658.15" y="1498.23" style="font-family:'Helvetica';font-size:112.59px;fill:#000000" transform="rotate(-90 4658.15,1498.23)" text-anchor="middle">100</text>
	<line x1="4759.56" y1="390.42" x2="4714.74" y2="390.42" style="stroke:#000000;stroke-width:6.48"/>
	<text x="4658.15" y="390.42" style="font-family:'Helvetica';font-size:112.59px;fill:#000000" transform="rotate(-90 4658.15,390.42)" text-anchor="middle">150</text>
	<text x="4534.49" y="1996.92" style="font-family:'Helvetica';font-size:112.59px;fill:#000000" transform="rotate(-90 4534.49,1996.92)" text-anchor="middle">Survey Obs. Freqencies</text>
	<line x1="4759.56" y1="3785.40" x2="8431.56" y2="3785.40" style="stroke:#000000;stroke-width:6.48"/>
	<line x1="4830.84" y1="3785.40" x2="4830.84" y2="3830.22" style="stroke:#000000;stroke-width:6.48"/>
	<text x="4830.84" y="3931.58" style="font-family:'Helvetica';font-size:112.59px;fill:#000000" text-anchor="middle">-40</text>
	<line x1="5713.20" y1="3785.40" x2="5713.20" y2="3830.22" style="stroke:#000000;stroke-width:6.48"/>
	<text x="5713.20" y="3931.58" style="font-family:'Helvetica';font-size:112.59px;fill:#000000" text-anchor="middle">-20</text>
	<line x1="6595.56" y1="3785.40" x2="6595.56" y2="3830.22" style="stroke:#000000;stroke-width:6.48"/>
	<text x="6595.56" y="3931.58" style="font-family:'Helvetica';font-size:112.59px;fill:#000000" text-anchor="middle">0</text>
	<line x1="7477.92" y1="3785.40" x2="7477.92" y2="3830.22" style="stroke:#000000;stroke-width:6.48"/>
	<text x="7477.92" y="3931.58" style="font-family:'Helvetica';font-size:112.59px;fill:#000000" text-anchor="middle">20</text>
	<line x1="8360.28" y1="3785.40" x2="8360.28" y2="3830.22" style="stroke:#000000;stroke-width:6.48"/>
	<text x="8360.28" y="3931.58" style="font-family:'Helvetica';font-size:112.59px;fill:#000000" text-anchor="middle">40</text>
	<text x="6595.56" y="4055.24" style="font-family:'Helvetica';font-size:112.59px;fill:#000000" text-anchor="middle">Days elapsed since April 16 2012</text>
</svg>
